General
Complete name                            : Serial.Killers.The.Real.Silence.of.the.Lambs.HDTV.P2P4FREE.mp4
Format                                   : MPEG-4
Format profile                           : Base Media / Version 2
Codec ID                                 : mp42
File size                                : 131 MiB
Duration                                 : 44mn 43s
Overall bit rate mode                    : Variable
Overall bit rate                         : 409 Kbps

Video
ID                                       : 1
Format                                   : AVC
Format/Info                              : Advanced Video Codec
Format profile                           : Baseline@L3.0
Format settings, CABAC                   : No
Format settings, ReFrames                : 1 frame
Codec ID                                 : avc1
Codec ID/Info                            : Advanced Video Coding
Duration                                 : 44mn 43s
Bit rate                                 : 311 Kbps
Maximum bit rate                         : 1 468 Kbps
Width                                    : 640 pixels
Height                                   : 356 pixels
Display aspect ratio                     : 16:9
Frame rate mode                          : Constant
Frame rate                               : 25.000 fps
Color space                              : YUV
Chroma subsampling                       : 4:2:0
Bit depth                                : 8 bits
Scan type                                : Progressive
Bits/(Pixel*Frame)                       : 0.055
Stream size                              : 99.4 MiB (76%)

Audio
ID                                       : 2
Format                                   : AAC
Format/Info                              : Advanced Audio Codec
Format profile                           : LC
Codec ID                                 : 40
Duration                                 : 44mn 43s
Bit rate mode                            : Variable
Bit rate                                 : 96.0 Kbps
Maximum bit rate                         : 104 Kbps
Channel(s)                               : 2 channels
Channel positions                        : Front: L R
Sampling rate                            : 44.1 KHz
Compression mode                         : Lossy
Stream size                              : 30.7 MiB (23%)

SCREENS
---------------------------------- 
http://share.pho.to/2SBIr/original 
http://share.pho.to/2SBIs/original 
http://share.pho.to/2SBIt/original 
http://share.pho.to/2SBJ9/original 
http://share.pho.to/2SBJD/original
----------------------------------

Enjoy ;)